<svg xmlns="http://www.w3.org/2000/svg" viewBox="0 0 128 128" width="128" height="128"><title>商船</title><defs><linearGradient id="body" x1="0" y1="0" x2="1" y2="1"><stop stop-color="#e6d29a"/><stop offset="1" stop-color="#676f71"/></linearGradient></defs><g stroke-linejoin="round" stroke-linecap="round"><path d="m27 38 27-12 28 8 22 35-15 32-49-9-22-31Z" fill="url(#body)"/><path d="m40 47 34-13 16 32-35 14Z" fill="#314958"/><path d="m48 49 29-10m-26 24 32-12m-27-8 9 27m-24-21 10 23" stroke="#b5c4c6" stroke-width="3"/><path d="m20 62 20 9 9 24-22-8Z" fill="#86c9db"/><circle cx="93" cy="99" r="20" fill="#c9a76a" stroke="#27313d" stroke-width="4"/><path d="M87 88h10l-10 20h10m-5-22v25" stroke="#594a34" stroke-width="3" fill="none"/></g></svg>
